<?xml version="1.0" standalone="no"?>
<!DOCTYPE svg PUBLIC "-//W3C//DTD SVG 20010904//EN"
 "http://www.w3.org/TR/2001/REC-SVG-20010904/DTD/svg10.dtd">
<svg version="1.0" xmlns="http://www.w3.org/2000/svg"
 width="300.000000pt" height="266.000000pt" viewBox="0 0 300.000000 266.000000"
 preserveAspectRatio="xMidYMid meet">
<metadata>
Created by potrace 1.10, written by Peter Selinger 2001-2011
</metadata>
<g transform="translate(0.000000,266.000000) scale(0.100000,-0.100000)"
fill="#483d8b" stroke="none">
<path d="M1487 2374 c-14 -15 -6 -63 22 -133 l30 -71 -23 0 c-13 0 -44 -3 -69
-6 l-45 -6 -46 68 -46 69 27 12 c16 7 45 12 65 13 36 0 36 0 28 -32 -13 -54
-21 -125 -11 -108 17 30 31 140 20 167 -9 24 -13 25 -59 20 -27 -3 -59 -11
-71 -17 -28 -16 -20 -47 35 -130 l43 -65 -64 -21 -63 -20 0 77 c0 93 -11 129
-40 129 -23 0 -101 -37 -112 -53 -9 -15 10 -45 70 -108 l54 -56 -55 -30 -54
-30 -13 71 c-14 82 -34 126 -56 126 -23 0 -66 -25 -92 -53 -23 -24 -23 -26 -7
-50 9 -14 45 -45 80 -68 l64 -42 -37 -27 c-20 -15 -43 -34 -51 -44 -13 -15
-17 -9 -47 59 -35 80 -53 105 -78 105 -18 0 -96 -76 -96 -93 0 -21 51 -55 115
-78 36 -12 65 -25 65 -28 -1 -3 -18 -26 -39 -50 l-39 -44 -41 66 c-23 36 -53
73 -67 82 -24 16 -26 15 -53 -14 -16 -17 -34 -44 -41 -62 -12 -29 -12 -33 11
-50 13 -10 38 -21 54 -24 17 -3 51 -11 77 -16 l47 -11 -30 -46 c-16 -25 -29
-53 -29 -61 0 -9 -27 11 -62 46 -35 34 -75 65 -90 68 -24 6 -29 2 -46 -32 -10
-21 -22 -50 -26 -66 -5 -23 -3 -29 19 -37 15 -6 62 -10 107 -10 64 0 79 -3 75
-14 -3 -8 -11 -34 -18 -57 -7 -24 -14 -46 -15 -48 -2 -2 -30 16 -62 39 -33 23
-74 44 -90 46 -26 4 -33 1 -46 -25 -9 -16 -16 -48 -16 -71 0 -56 23 -64 127
-41 l79 17 -4 -66 c-3 -36 -5 -66 -7 -68 -1 -1 -32 11 -68 28 -82 37 -132 40
-141 8 -9 -35 -7 -87 4 -107 14 -26 53 -23 131 10 38 16 70 29 72 29 2 0 5
-23 6 -51 1 -29 4 -56 7 -60 7 -11 12 -12 -75 6 -79 17 -126 13 -135 -11 -8
-21 13 -111 29 -124 16 -14 64 5 131 50 64 45 47 49 -20 6 -31 -20 -60 -36
-65 -36 -10 0 -37 107 -29 115 4 5 149 -23 157 -30 2 -2 14 -35 26 -72 l22
-68 -93 -5 c-51 -3 -98 -10 -103 -15 -13 -13 1 -67 29 -113 18 -29 22 -31 42
-20 13 7 49 37 80 67 32 30 59 53 60 50 2 -2 15 -27 30 -55 l26 -51 -66 -12
c-71 -12 -132 -38 -132 -56 0 -15 55 -101 70 -110 21 -13 59 17 101 82 55 84
45 91 -12 9 -42 -61 -45 -64 -63 -48 -10 9 -27 34 -37 54 l-19 36 48 10 c122
26 112 29 163 -36 l46 -58 -66 -28 c-36 -15 -77 -36 -90 -47 -24 -19 -24 -21
-9 -47 9 -15 32 -40 52 -56 l36 -29 24 24 c14 14 35 53 48 88 13 34 28 62 33
60 6 -1 29 -16 51 -33 l42 -32 -69 -44 c-108 -71 -111 -94 -22 -147 l44 -26
21 22 c12 13 26 52 35 94 8 40 16 73 18 75 2 2 28 -10 58 -26 l55 -29 -59 -59
c-32 -33 -61 -71 -65 -87 -6 -25 -3 -29 50 -53 34 -15 64 -23 74 -19 12 5 3
11 -31 20 -49 12 -87 39 -74 51 4 4 13 2 20 -4 8 -7 33 -19 57 -27 35 -12 45
-13 52 -3 12 20 10 160 -3 153 -6 -5 -8 -31 -3 -77 l7 -71 -29 7 c-44 11 -94
34 -94 43 0 5 24 33 54 62 l54 53 69 -18 70 -18 -42 -60 c-24 -34 -46 -76 -50
-94 -6 -30 -4 -33 29 -47 19 -8 53 -15 75 -15 34 0 39 3 44 28 5 27 -18 161
-30 171 -3 3 -3 -10 1 -29 4 -19 9 -54 13 -77 6 -42 5 -43 -24 -43 -28 0 -93
18 -93 25 0 2 20 33 45 68 l45 64 72 -5 c40 -2 74 -5 75 -6 2 -1 -11 -34 -27
-72 -37 -86 -39 -129 -7 -138 28 -7 76 -7 103 0 32 8 29 62 -7 141 -31 69 -33
77 -21 70 4 -3 31 -1 60 2 59 8 57 13 37 -79 -15 -71 -11 -116 12 -124 18 -7
103 11 120 26 8 6 10 20 6 37 -7 31 -66 125 -85 137 -13 8 -3 -9 48 -86 13
-19 20 -38 16 -42 -9 -9 -109 -27 -115 -22 -2 2 4 39 13 81 l16 78 62 17 c33
9 66 19 71 23 8 4 11 -20 11 -74 0 -91 11 -131 37 -131 10 0 42 11 71 25 47
22 53 27 46 47 -9 30 -80 116 -108 129 -11 6 4 -14 34 -45 52 -54 53 -56 35
-70 -18 -13 -66 -30 -88 -31 -5 0 -9 35 -9 79 l0 79 61 32 60 32 11 -56 c18
-90 20 -95 39 -120 l18 -23 39 20 c21 11 48 29 58 41 17 19 18 24 5 47 -14 27
-126 110 -136 101 -2 -3 23 -24 57 -47 l62 -42 -22 -23 c-21 -22 -77 -52 -84
-44 -1 2 -9 37 -18 77 l-15 73 57 49 c62 53 70 58 70 36 0 -20 51 -128 71
-149 13 -15 21 -16 37 -8 24 13 82 78 82 92 0 21 -38 49 -107 76 l-71 28 47
54 47 54 67 -13 c37 -8 72 -17 78 -20 12 -8 -5 -45 -39 -88 l-18 -24 -44 66
c-23 37 -45 64 -48 62 -8 -8 75 -130 99 -144 19 -12 24 -11 46 10 14 13 33 40
44 60 l19 37 -28 19 c-15 11 -58 25 -97 32 -38 8 -71 14 -72 15 -1 0 11 26 26
57 l29 56 57 -58 c69 -69 101 -82 126 -49 26 34 43 99 30 112 -8 8 -11 3 -11
-16 0 -34 -30 -97 -47 -97 -9 0 -8 10 7 38 25 50 35 92 21 92 -6 0 -11 -9 -11
-20 0 -25 -30 -100 -40 -100 -4 0 -33 26 -64 57 -44 44 -56 62 -51 78 4 11 11
38 17 60 6 22 12 42 14 44 2 2 34 -16 70 -40 37 -24 80 -45 95 -47 26 -3 29 1
44 52 20 67 14 92 -23 99 -27 5 -147 -15 -159 -27 -10 -9 17 -7 79 8 65 16 73
11 62 -37 -18 -83 -16 -82 -88 -35 -36 24 -66 49 -68 57 -2 8 1 42 6 76 l10
62 55 -24 c66 -29 131 -39 143 -20 13 20 9 125 -4 134 -7 4 -24 6 -38 5 -28
-3 -130 -41 -144 -54 -19 -16 13 -8 70 17 31 14 60 25 65 25 10 0 13 -113 3
-122 -8 -8 -136 48 -144 64 -4 7 -10 41 -14 74 l-7 62 76 -18 c125 -29 156 -4
122 95 -19 54 -52 55 -127 5 -30 -20 -60 -40 -67 -43 -8 -5 -17 11 -28 45 -9
29 -18 58 -21 63 -2 6 21 9 63 7 37 -2 84 2 106 9 37 12 38 14 32 48 -8 44
-32 90 -50 97 -7 3 -24 0 -37 -6 -29 -16 -118 -101 -118 -114 0 -6 27 16 60
49 l59 59 20 -45 c36 -77 33 -80 -60 -77 -70 3 -83 6 -93 23 -6 11 -21 37 -33
57 -28 46 -28 48 0 48 47 0 134 22 158 41 l24 18 -24 45 c-13 25 -31 52 -41
61 -17 15 -20 15 -43 0 -14 -9 -45 -46 -68 -81 l-42 -65 -43 48 c-46 52 -52
63 -30 63 23 0 140 55 154 73 8 9 11 25 7 36 -7 24 -70 81 -89 81 -21 0 -52
-42 -76 -105 -13 -33 -26 -63 -29 -67 -3 -3 -26 11 -50 33 -24 22 -42 41 -40
43 2 1 31 21 64 43 70 47 95 84 75 108 -7 9 -33 28 -58 42 l-44 26 -19 -24
c-10 -13 -23 -49 -29 -79 -7 -30 -14 -65 -17 -77 l-5 -22 -58 30 -58 29 59 58
c79 76 83 107 19 140 -24 12 -53 22 -65 22 -32 0 -47 -48 -43 -135 2 -41 3
-75 3 -75 0 0 -25 9 -55 20 -33 12 -54 24 -52 32 2 7 18 36 37 63 18 28 36 64
40 81 5 27 3 33 -23 43 -15 7 -48 13 -72 14 -40 2 -44 0 -51 -27 -5 -18 -2
-56 7 -99 8 -38 13 -72 11 -74 -2 -1 -31 0 -64 3 l-61 7 28 68 c16 37 28 83
27 101 l-2 33 -65 3 c-36 2 -69 0 -73 -4z m123 -14 c17 -11 17 -11 -55 -11
-72 0 -72 0 -55 11 8 5 33 10 55 10 22 0 47 -5 55 -10z m-186 -9 c4 -5 -13
-12 -36 -16 -24 -4 -51 -11 -60 -17 -13 -6 -18 -5 -18 6 0 9 16 18 43 24 57
13 65 13 71 3z m365 -12 c17 -6 31 -15 31 -21 0 -6 -8 -7 -17 -3 -10 4 -37 10
-61 12 -23 3 -45 10 -48 14 -7 13 57 11 95 -2z m-169 -12 c0 -19 -59 -141 -66
-137 -7 3 -64 125 -64 137 0 2 29 3 65 3 36 0 65 -2 65 -3z m153 -18 c20 -5
37 -12 37 -15 0 -14 -83 -133 -90 -129 -4 2 -10 24 -14 47 -4 24 -9 58 -12 76
-6 29 -4 32 17 32 13 0 41 -5 62 -11z m-540 -6 c4 -3 -19 -17 -51 -30 -66 -26
-62 -26 -62 -14 0 5 21 18 48 29 53 24 56 25 65 15z m713 -12 c39 -18 65 -41
47 -41 -5 0 -26 9 -48 20 -22 11 -45 20 -52 20 -7 0 -13 5 -13 10 0 15 20 12
66 -9z m-696 -98 l0 -87 -60 59 c-48 47 -57 62 -47 72 11 11 80 40 100 42 4 1
7 -38 7 -86z m698 60 c17 -9 32 -20 32 -26 0 -13 -90 -107 -102 -107 -4 0 -8
36 -8 81 0 90 -2 88 78 52z m-888 -33 c0 -5 -10 -15 -22 -21 -13 -6 -33 -21
-45 -32 -26 -23 -43 -16 -22 9 15 18 69 54 82 54 4 0 7 -4 7 -10z m1068 -30
c23 -17 42 -35 42 -40 0 -16 -15 -12 -34 9 -10 11 -31 25 -47 31 -16 7 -29 16
-29 21 0 17 27 9 68 -21z m-1048 3 c0 -5 7 -39 15 -77 8 -38 13 -71 11 -73 -4
-4 -136 86 -136 93 0 6 92 64 102 64 4 0 8 -3 8 -7z m1008 -17 c15 -8 35 -23
45 -34 18 -20 17 -21 -42 -61 -33 -23 -64 -41 -69 -41 -4 0 -1 34 7 75 9 41
19 75 24 75 4 0 20 -6 35 -14z m-393 -31 c55 -8 171 -49 232 -82 188 -100 337
-282 394 -482 117 -405 -101 -832 -496 -974 -374 -134 -792 31 -974 383 -58
112 -82 198 -88 325 -13 246 74 457 257 628 182 169 422 241 675 202z m-795
-40 c0 -2 -20 -25 -45 -51 -28 -28 -45 -40 -45 -30 0 17 65 86 80 86 6 0 10
-2 10 -5z m1372 -35 c55 -54 39 -67 -17 -14 -25 24 -45 46 -45 49 0 15 27 0
62 -35z m-1321 -57 c16 -37 27 -69 24 -71 -7 -7 -145 50 -145 60 0 13 81 90
87 84 4 -3 19 -36 34 -73z m1296 35 c18 -18 33 -37 33 -44 0 -11 -116 -64
-139 -64 -5 0 5 32 22 70 17 39 35 70 41 70 6 0 25 -14 43 -32z m-1477 -84 c0
-3 -11 -20 -25 -38 -14 -18 -25 -38 -25 -44 0 -15 -17 -25 -24 -14 -7 11 50
102 64 102 5 0 10 -3 10 -6z m1625 -43 c14 -22 25 -48 23 -58 -3 -13 -10 -7
-26 24 -12 23 -26 44 -32 48 -5 3 -10 10 -10 16 0 20 18 7 45 -30z m-1556 -35
c22 -35 41 -66 41 -69 0 -4 -115 18 -148 29 -10 3 -9 11 4 36 18 37 43 68 54
68 4 0 26 -29 49 -64z m1513 37 c9 -10 23 -33 32 -51 13 -25 14 -33 4 -36 -34
-10 -139 -28 -143 -25 -5 6 75 129 85 129 4 0 14 -8 22 -17z m-1682 -128 c0
-3 -9 -22 -20 -42 -11 -21 -20 -46 -20 -55 0 -10 -4 -18 -10 -18 -5 0 -10 8
-10 18 1 25 37 102 50 102 5 0 10 -2 10 -5z m1826 -73 c7 -36 -2 -57 -11 -26
-3 10 -14 36 -24 56 -10 20 -16 40 -13 43 10 10 41 -38 48 -73z m-1697 -44 c0
-5 -35 -8 -79 -8 -50 0 -80 4 -80 11 0 6 10 33 21 60 l22 50 57 -53 c32 -29
58 -56 59 -60z m-203 -80 c-3 -13 -9 -40 -12 -60 -4 -21 -10 -38 -15 -38 -12
0 -11 8 2 70 6 27 15 50 21 50 6 0 8 -10 4 -22z m96 -28 c32 -19 56 -39 54
-45 -2 -8 -104 -32 -143 -34 -12 -1 -8 53 9 97 9 27 6 28 80 -18z m1848 14
c12 -31 13 -107 1 -100 -4 3 -11 25 -14 48 -2 24 -8 51 -12 61 -4 10 -3 17 4
17 6 0 16 -12 21 -26z m-31 -21 c14 -51 14 -83 -1 -83 -21 1 -139 27 -144 32
-5 5 116 88 128 88 4 0 12 -17 17 -37z m-1939 -209 c0 -41 -4 -63 -10 -59 -5
3 -10 33 -10 66 0 33 4 59 10 59 6 0 10 -29 10 -66z m91 40 c35 -14 67 -29 71
-33 5 -4 -26 -21 -66 -38 -82 -33 -86 -32 -86 32 0 29 8 65 14 65 2 0 31 -12
67 -26z m1904 -5 c7 -32 -2 -105 -12 -95 -9 8 -10 126 -2 126 4 0 10 -14 14
-31z m-1982 -202 c3 -24 9 -51 13 -60 3 -9 2 -17 -4 -17 -13 0 -32 55 -32 91
0 45 17 34 23 -14z m1967 4 c0 -36 -19 -91 -32 -91 -6 0 -7 8 -3 18 4 9 10 36
12 60 6 47 23 58 23 13z m-1752 -149 c-1 -4 -28 -31 -59 -60 l-56 -53 -16 33
c-8 18 -19 45 -22 61 l-7 27 82 0 c45 0 80 -3 78 -8z m-168 -20 c0 -9 9 -34
20 -55 23 -42 24 -47 10 -47 -13 0 -49 77 -50 103 0 9 5 17 10 17 6 0 10 -8
10 -18z m80 -165 c0 -8 14 -33 30 -55 21 -30 26 -42 15 -42 -8 0 -26 20 -40
43 -27 46 -31 67 -15 67 6 0 10 -6 10 -13z m1710 -12 c0 -14 -30 -62 -49 -79
-28 -26 -40 -12 -14 17 11 12 26 32 32 45 10 20 31 31 31 17z m-1440 -68 c0
-1 -13 -34 -30 -72 -17 -41 -35 -69 -42 -67 -21 5 -81 73 -72 82 17 16 144 66
144 57z m1232 -24 c37 -16 68 -33 68 -38 0 -14 -78 -90 -85 -84 -10 10 -64
149 -58 149 4 0 37 -12 75 -27z m-1353 -94 c43 -43 48 -59 13 -40 -31 17 -77
81 -58 81 2 0 22 -19 45 -41z m1451 36 c0 -12 -74 -85 -86 -85 -21 0 -18 6 29
49 39 37 57 49 57 36z m-1213 -32 c-3 -10 -10 -46 -17 -79 -14 -71 -23 -73
-84 -22 l-37 30 63 44 c70 48 81 52 75 27z m-60 -143 c7 0 13 -4 13 -10 0 -17
-24 -11 -63 15 -20 14 -37 33 -37 41 0 11 10 7 37 -15 21 -17 43 -31 50 -31z
m1123 42 c0 -19 -74 -72 -99 -72 -22 0 -10 18 18 30 16 6 37 20 47 31 18 20
34 25 34 11z m-568 -99 c21 -51 25 -69 15 -75 -14 -9 -63 -10 -93 -2 -22 6
-22 6 9 80 17 40 33 71 35 69 3 -3 18 -35 34 -72z m398 -3 c0 -14 -41 -39 -78
-46 -46 -9 -40 10 8 25 21 6 42 16 45 21 8 13 25 13 25 0z m-612 -75 c23 -4
39 -11 36 -17 -7 -10 -78 -2 -107 14 -10 5 -15 13 -12 19 4 5 13 6 23 0 9 -5
36 -12 60 -16z m422 6 c0 -12 -56 -31 -91 -31 -47 0 -33 16 24 27 28 5 55 11
60 11 4 1 7 -2 7 -7z m-186 -32 c-7 -11 -111 -12 -118 0 -3 4 -4 10 -2 12 9 8
126 -3 120 -12z"/>
<path d="M1226 1669 c-2 -8 -12 -81 -21 -164 -17 -151 -18 -210 -1 -210 15 0
25 27 31 88 5 46 10 57 24 57 10 0 24 -7 31 -15 25 -30 63 -15 167 61 12 9 27
13 33 9 5 -3 10 -41 10 -85 0 -78 10 -104 33 -81 13 13 12 270 -1 283 -4 4
-27 -12 -51 -37 -46 -48 -109 -89 -152 -100 -37 -9 -51 13 -59 101 -5 48 -13
82 -23 92 -14 13 -17 13 -21 1z m292 -138 c-2 -28 -10 -30 -41 -13 -9 5 21 42
35 42 4 0 7 -13 6 -29z m-245 -60 c10 -12 9 -14 -5 -8 -10 3 -20 1 -24 -4 -4
-7 -10 -7 -18 1 -8 9 -8 14 2 17 6 3 9 9 6 14 -3 6 -3 22 1 37 l8 27 9 -35 c6
-19 15 -41 21 -49z m67 -31 c-8 -5 -17 -7 -19 -4 -3 3 1 9 9 14 8 5 17 7 19 4
3 -3 -1 -9 -9 -14z"/>
<path d="M1558 1635 c-9 -19 -8 -29 6 -49 19 -30 43 -25 52 11 4 16 0 30 -11
43 -24 26 -33 25 -47 -5z"/>
<path d="M1717 1522 c-54 -60 -47 -175 13 -207 20 -11 32 -9 78 12 30 13 58
20 63 16 4 -4 10 -42 14 -83 6 -64 4 -78 -10 -90 -14 -12 -23 -10 -68 13 -29
15 -60 32 -69 39 -13 9 -20 10 -29 1 -18 -18 6 -49 70 -87 80 -47 97 -51 128
-31 l25 17 -7 137 c-4 91 -3 152 4 178 9 31 8 48 0 67 -16 35 -26 33 -34 -6
-12 -55 -31 -82 -73 -106 -80 -45 -120 -13 -83 68 14 31 17 49 10 62 -12 22
-12 22 -32 0z m181 -142 c-1 -25 -4 -28 -20 -19 -29 16 -21 44 14 48 4 1 6
-12 6 -29z m-138 -34 c0 -3 -4 -8 -10 -11 -5 -3 -10 -1 -10 4 0 6 5 11 10 11
6 0 10 -2 10 -4z m140 -206 c0 -15 -7 -20 -25 -20 -14 0 -25 4 -25 8 0 7 30
27 48 31 1 1 2 -8 2 -19z"/>
<path d="M1603 1478 c-4 -7 -8 -109 -8 -225 0 -167 3 -213 13 -213 18 0 20 10
32 155 6 72 13 160 17 196 4 53 2 68 -11 82 -21 20 -32 21 -43 5z m32 -75 c-8
-65 -15 -67 -15 -5 0 29 5 52 10 52 7 0 9 -18 5 -47z"/>
<path d="M2368 1043 c17 -2 47 -2 65 0 17 2 3 4 -33 4 -36 0 -50 -2 -32 -4z"/>
</g>
</svg>
